<svg version="1.2" xmlns="http://www.w3.org/2000/svg" viewBox="0 0 24 24" width="24" height="24">
	<title>eyesopen-svg</title>
	<style>
		.s0 { fill: none;stroke: #cccccc;stroke-linecap: round;stroke-linejoin: round;stroke-width: 1.5 } 
	</style>
	<g id="SVGRepo_bgCarrier">
	</g>
	<g id="SVGRepo_tracerCarrier">
	</g>
	<g id="SVGRepo_iconCarrier">
		<g id="style=linear">
			<g id="eye-open">
				<path id="vector" fill-rule="evenodd" class="s0" d="m12 15c-1.7 0-3-1.3-3-3 0-1.7 1.3-3 3-3 1.7 0 3 1.3 3 3 0 1.7-1.3 3-3 3z"/>
				<path id="vector_2" fill-rule="evenodd" class="s0" d="m12 19.3c3.5 0 6.8-1.9 9.1-5 0.9-1.3 0.9-3.3 0-4.6-2.3-3.2-5.6-5-9.1-5-3.5 0-6.8 1.8-9.1 5-0.9 1.3-0.9 3.3 0 4.6 2.3 3.1 5.6 5 9.1 5z"/>
			</g>
		</g>
	</g>
</svg>