<svg version="1.2" xmlns="http://www.w3.org/2000/svg" viewBox="0 0 322 66" width="322" height="66">
	<title>Abstract Mountain Logo (1)-svg</title>
	<style>
		.s0 { fill: #3399f4 } 
	</style>
	<g id="Layer">
		<g id="Layer">
			<g id="Layer">
				<path id="Layer" class="s0" d="m175 40.2l-0.8-9.9h-0.1l-3.4 9.8h-2.2l-3.4-9.8h-0.1l-0.8 9.9h-3.8l1.5-16.7h4l3.7 9.6 3.7-9.6h4l1.5 16.7z"/>
			</g>
		</g>
	</g>
	<g id="Layer">
		<g id="Layer">
			<g id="Layer">
				<path id="Layer" fill-rule="evenodd" class="s0" d="m185.8 31.8q0-3.6 2.5-6.1 2.4-2.5 5.9-2.5 3.5 0 5.9 2.5 2.5 2.5 2.5 6.1 0 3.7-2.4 6.2-2.4 2.5-6 2.5-3.6 0-6-2.5-2.4-2.5-2.4-6.2zm4.1 0q0 1.4 0.4 2.4 0.4 1.1 1.4 1.9 1 0.7 2.5 0.7 2.1 0 3.2-1.4 1.1-1.5 1.1-3.6 0-2-1.1-3.4-1.1-1.5-3.2-1.5-2 0-3.2 1.5-1.1 1.4-1.1 3.4z"/>
			</g>
		</g>
	</g>
	<g id="Layer">
		<g id="Layer">
			<g id="Layer">
				<path id="Layer" class="s0" d="m223.3 23.5v10.8q0 3-1.7 4.6-1.6 1.6-4.8 1.6-3.2 0-4.8-1.6-1.7-1.6-1.7-4.6v-10.8h3.8v9.7q0 2 0.6 2.8 0.7 0.7 2.1 0.7 1.4 0 2.1-0.7 0.6-0.8 0.6-2.8v-9.7z"/>
			</g>
		</g>
	</g>
	<g id="Layer">
		<g id="Layer">
			<g id="Layer">
				<path id="Layer" class="s0" d="m235.5 29.9v10.3h-3.8v-16.7h3.8l6.6 10.4h0.1v-10.4h3.8v16.7h-3.8l-6.6-10.3z"/>
			</g>
		</g>
	</g>
	<g id="Layer">
		<g id="Layer">
			<g id="Layer">
				<path id="Layer" class="s0" d="m253.6 26.9v-3.4h11.7v3.4h-4v13.3h-3.8v-13.3z"/>
			</g>
		</g>
	</g>
	<g id="Layer">
		<g id="Layer">
			<g id="Layer">
				<path id="Layer" fill-rule="evenodd" class="s0" d="m281.4 23.5l6.7 16.7h-4.1l-1.2-3.4h-6.4l-1.2 3.4h-4.1l6.7-16.7zm0.2 10l-1.9-4.8-1.9 4.8z"/>
			</g>
		</g>
	</g>
	<g id="Layer">
		<g id="Layer">
			<g id="Layer">
				<path id="Layer" class="s0" d="m298.7 23.5v16.7h-3.8v-16.7z"/>
			</g>
		</g>
	</g>
	<g id="Layer">
		<g id="Layer">
			<g id="Layer">
				<path id="Layer" class="s0" d="m311.2 29.9v10.3h-3.8v-16.7h3.8l6.6 10.4h0.1v-10.4h3.7v16.7h-3.7l-6.7-10.3z"/>
			</g>
		</g>
	</g>
	<g id="Layer">
		<g id="Layer">
			<g id="Layer">
				<path id="Layer" fill-rule="evenodd" class="s0" d="m220.1 51.7h-5l-1.1 3.1h-1.6l4.5-11.9h1.4l4.5 11.9h-1.6zm-4.5-1.3h4.1l-2-5.5z"/>
			</g>
		</g>
	</g>
	<g id="Layer">
		<g id="Layer">
			<g id="Layer">
				<path id="Layer" fill-rule="evenodd" class="s0" d="m239.3 50.2v4.6h-1.6v-11.9h4.4q2 0 3.1 1 1.1 1 1.1 2.7 0 1.7-1.1 2.6-1.1 1-3.1 1zm0-1.3h2.8q1.3 0 1.9-0.6 0.7-0.6 0.7-1.7 0-1.1-0.7-1.7-0.6-0.6-1.8-0.7h-2.9z"/>
			</g>
		</g>
	</g>
	<g id="Layer">
		<g id="Layer">
			<g id="Layer">
				<path id="Layer" fill-rule="evenodd" class="s0" d="m263.1 50.2v4.6h-1.5v-11.9h4.3q2 0 3.1 1 1.1 1 1.1 2.7 0 1.7-1.1 2.6-1.1 1-3.1 1zm0-1.3h2.8q1.3 0 1.9-0.6 0.7-0.6 0.7-1.7 0-1.1-0.7-1.7-0.6-0.6-1.8-0.7h-2.9z"/>
			</g>
		</g>
	</g>
	<path id="Layer" class="s0" d="m2.5 56.3c0 0 25.4-20.2 30-18.7 4.5 1.6 16.3-16.9 20-13.9 3.7 3.1 4.5 8.8 8.3 6.2 3.9-2.5 25.5-26 29.8-21.2 4.2 4.8 14 18.1 19.1 17.1 5-0.9 7 6.4 10.6 6.4 3.6 0 7.4-9.9 11.1-7.6 3.7 2.4 8.7 7.2 12.6 10.7 4 3.4 22.2 21.6 19.5 21-2.6-0.6-6.9-8-12.4-8.2-5.6-0.1-7.1-2.2-3.6 1.4 3.4 3.5 7.9 8.4 1.6 3.1-6.4-5.3-7.2-3.9-12.2-8.6-5.1-4.6-4.4-7.2-10.1-7.9-5.7-0.8-7.8-2-4.9 1.2 3 3.2 4.8 5.9 4.8 5.9 0 0 3.2 4.8-1.3 0-4.5-4.8-6.1-6.5-7.9-7.1-1.8-0.7-3.1-4.1-3.1-4.6-0.1-0.4-0.5-4.2-3.5-4.2-3 0-3.9 0.1-3.9 1.2 0 1.1-3-0.2-3.9-1-0.9-0.8-13.7-18-14.8-16-1.1 2.1-0.5 2.1-0.5 3.9 0 1.7 3.8 3.8 5.3 6.9 1.5 3-0.2 0.1 1.7 3.9 1.9 3.7 3.8 5.1-0.9 1.9-4.6-3.3-6-8.4-8-7.6-2.1 0.9-0.4 0.6-1.4 3.4-1.1 2.9 1 0 0.9 4.1-0.1 4.1 6 3.1 9.2 8.1 3.2 5 4.1 5.4 6.8 7 2.7 1.5 6 4.2 3.1 2.7-3-1.5-8.6-2-11.4-4.2-2.8-2.3-3.9-1.4-4.2 0.9-0.3 2.2 4.3 1.4 3.9 3.6-0.4 2.2 1.7 1.5 6.6 7.3 4.9 5.8 5.9 5.1 1.2 2.9-4.7-2.2-5.5-5.5-10.3-6.7-4.7-1.2-5-2.3-10.2-3.7-5.2-1.4-1.8 6.6-6 2.5-4.2-4.1-9.4-9.7-12.3-11.3-2.9-1.6-2.8-0.4-5.4-2.8-2.6-2.4-4.4-3.9-3.3-1.3 1.1 2.6 3.4 4.9 4.7 7.8 1.3 2.8-0.3 2 0.6 3.4 1 1.4 1.4 1.7 1.8 2.9 0.4 1.3 0.4 1.4-1.1-0.1-1.4-1.4-2-1.5-2.2-2.5-0.1-1-0.1 0.2-2.5-1.3-2.4-1.6-3.5-2.6-6.1-3.2-2.5-0.7-1.9-2.2-3.4-1-1.5 1.1-1.5-0.2-2 1.5-0.5 1.7 1.9 1 3.2 2.8 1.3 1.9-0.5 0.9 3.4 3.8 3.9 2.9 1.9 2.1 4 4 2.1 1.8 3.7 1.8 4.9 3.9 1.3 2.1 2.9 4.9 0.5 2.3-2.5-2.6-2.7-2.9-5.2-3.1-2.5-0.2-2.9 1.4-4.8-0.4-1.9-1.8-7.5-1.5-9.9-4.1-2.4-2.7-4.3-6.3-8.2-4.7-3.9 1.6-6.5-1.7-8.2 0.4-1.6 2.2-0.2 0.2 2.1 2.8 2.2 2.6 3 2.1 3.5 3.2 0.5 1 0.5 0.3-1.9-0.6-2.4-0.8-1.2-1.1-2.4-0.8-1.1 0.3-3.5-3.7-8.2-0.6-4.7 3.2-3.3 0.6-6.7 2.8-3.3 2.2-7.8 5.9-6.5 4.1z"/>
</svg>